<svg width="50" height="91" viewBox="0 0 50 91" fill="none" xmlns="http://www.w3.org/2000/svg">
<rect width="50" height="91" fill="#1E1E1E"/>
<g id="Orange">
<rect id="Body" x="7.5" y="18.5" width="35" height="72" rx="17.5" fill="#FF7A00" stroke="black"/>
<g id="Leafs">
<path id="Leaf" d="M25.6891 17.5705L24.5925 18.6155C24.3813 18.8168 24.3952 19.1647 24.6236 19.3461C32.5041 25.6016 39.2527 8.76465 32.7768 4.32142C32.4909 4.12522 32.1181 4.32164 32.0767 4.66596L32.0518 4.87284C31.47 9.71591 29.2204 14.2054 25.6891 17.5705Z" fill="#1CC700" stroke="black" stroke-width="0.5"/>
<path id="Leaf_2" d="M24.8584 17.4978L24.2242 18.6077C24.0969 18.8305 24.1669 19.122 24.3858 19.2558C30.8181 23.1883 33.1947 7.79848 28.1763 4.8101C27.871 4.62826 27.5259 4.8885 27.5495 5.24312L27.5788 5.68195C27.8535 9.80236 26.9072 13.9123 24.8584 17.4978Z" fill="#1CC700" stroke="black" stroke-width="0.5"/>
</g>
<g id="Eyes">
<path id="eye1" d="M23.75 45C23.75 45.995 23.1451 46.9264 22.104 47.6204C21.0646 48.3133 19.6144 48.75 18 48.75C16.3856 48.75 14.9354 48.3133 13.896 47.6204C12.8549 46.9264 12.25 45.995 12.25 45C12.25 44.005 12.8549 43.0736 13.896 42.3796C14.9354 41.6867 16.3856 41.25 18 41.25C19.6144 41.25 21.0646 41.6867 22.104 42.3796C23.1451 43.0736 23.75 44.005 23.75 45Z" fill="white" stroke="black" stroke-width="0.5"/>
<path id="eye2" d="M37.75 45C37.75 45.995 37.1451 46.9264 36.104 47.6204C35.0646 48.3133 33.6144 48.75 32 48.75C30.3856 48.75 28.9354 48.3133 27.896 47.6204C26.8549 46.9264 26.25 45.995 26.25 45C26.25 44.005 26.8549 43.0736 27.896 42.3796C28.9354 41.6867 30.3856 41.25 32 41.25C33.6144 41.25 35.0646 41.6867 36.104 42.3796C37.1451 43.0736 37.75 44.005 37.75 45Z" fill="white" stroke="black" stroke-width="0.5"/>
<circle id="pupil1" cx="18" cy="45" r="1" fill="black"/>
<circle id="pupil2" cx="32" cy="45" r="1" fill="black"/>
</g>
<path id="Mouth" d="M32.6818 57H18.3182C18.1552 57 18.0344 57.1513 18.0705 57.3102C19.8676 65.2175 31.1324 65.2175 32.9295 57.3102C32.9656 57.1513 32.8448 57 32.6818 57Z" fill="white" stroke="black" stroke-width="0.5"/>
</g>
</svg>
